<svg width="89" height="89" viewBox="0 0 89 89" fill="none" xmlns="http://www.w3.org/2000/svg">
<path d="M79.5689 50.4957H76.5086V39.7845C76.5086 36.1321 75.0577 32.6292 72.475 30.0466C69.8923 27.4639 66.3895 26.013 62.737 26.013C59.0846 26.013 55.5818 27.4639 52.9991 30.0466C50.4164 32.6292 48.9655 36.1321 48.9655 39.7845V48.9656H45.9052V39.7845C45.9052 35.3204 47.6785 31.0392 50.8351 27.8826C53.9917 24.726 58.273 22.9526 62.737 22.9526C67.2011 22.9526 71.4824 24.726 74.639 27.8826C77.7956 31.0392 79.5689 35.3204 79.5689 39.7845V50.4957Z" fill="#428DC5"/>
<path d="M39.7845 47.4355H82.6293V53.5562H39.7845V47.4355Z" fill="#6CBAE5"/>
<path d="M78.0388 82.6294H44.375L41.3146 53.5562H81.0991L78.0388 82.6294Z" fill="#4799CF"/>
<path d="M82.6293 47.0527V58.0604C82.6293 59.7072 81.3631 61.1265 79.7162 61.203C79.3025 61.2226 78.8891 61.1582 78.501 61.0135C78.1129 60.8688 77.7582 60.6468 77.4584 60.3611C77.1585 60.0754 76.9197 59.7318 76.7565 59.3511C76.5933 58.9705 76.5089 58.5606 76.5086 58.1465C76.5086 58.9581 76.1862 59.7365 75.6123 60.3104C75.0383 60.8844 74.2599 61.2068 73.4483 61.2068C72.6366 61.2068 71.8582 60.8844 71.2843 60.3104C70.7104 59.7365 70.3879 58.9581 70.3879 58.1465C70.3879 58.9581 70.0655 59.7365 69.4916 60.3104C68.9176 60.8844 68.1392 61.2068 67.3276 61.2068C66.5159 61.2068 65.7375 60.8844 65.1636 60.3104C64.5897 59.7365 64.2672 58.9581 64.2672 58.1465C64.268 58.6837 64.1268 59.2115 63.8579 59.6766C63.5882 60.1414 63.2019 60.5278 62.7371 60.7975C62.2865 61.0595 61.7759 61.2006 61.2547 61.2068C59.5447 61.2317 58.1465 59.7723 58.1465 58.0623V47.0527C58.1465 45.9367 58.5899 44.8664 59.379 44.0772C60.1682 43.2881 61.2385 42.8447 62.3545 42.8447H78.4213C79.5374 42.8447 80.6077 43.2881 81.3968 44.0772C82.186 44.8664 82.6293 45.9367 82.6293 47.0527Z" fill="#FD9226"/>
<path d="M44.375 82.6289H78.0388V88.7496H44.375V82.6289Z" fill="#6CBAE5"/>
<path d="M70.3879 70.3877H73.4483V78.0386H70.3879V70.3877Z" fill="#6CBAE5"/>
<path d="M70.3879 64.2671H73.4483V67.3274H70.3879V64.2671Z" fill="#6CBAE5"/>
<path d="M64.2672 58.1466C64.268 58.6838 64.1268 59.2116 63.8579 59.6767C63.5882 60.1415 63.2019 60.5279 62.7371 60.7976V52.0259H64.2672V58.1466Z" fill="#E08122"/>
<path d="M70.388 58.1466C70.3882 58.6839 70.2469 59.2118 69.9783 59.6772C69.7097 60.1426 69.3232 60.529 68.8578 60.7976V52.0259H70.388V58.1466Z" fill="#E08122"/>
<path d="M76.5086 58.1466C76.5089 58.6839 76.3676 59.2118 76.0989 59.6772C75.8303 60.1426 75.4439 60.529 74.9785 60.7976V52.0259H76.5086V58.1466Z" fill="#E08122"/>
<path d="M55.0862 88.7502H6.12067L9.18101 76.5088H52.0258L55.0862 88.7502Z" fill="#FBB540"/>
<path d="M10.7112 70.3877H50.4957C50.9015 70.3877 51.2907 70.5489 51.5777 70.8359C51.8646 71.1228 52.0259 71.512 52.0259 71.9179V76.5084H9.18103V71.9179C9.18103 71.512 9.34224 71.1228 9.62921 70.8359C9.91617 70.5489 10.3054 70.3877 10.7112 70.3877Z" fill="#C17450"/>
<path d="M27.5431 76.5088H33.6638L35.194 88.7502H26.0129L27.5431 76.5088Z" fill="#EA9D2D"/>
<path d="M12.2414 88.7502L15.3017 76.5088H21.4224L18.3621 88.7502H12.2414Z" fill="#EA9D2D"/>
<path d="M30.6034 0C31.4151 0 32.1935 0.322428 32.7674 0.896354C33.3414 1.47028 33.6638 2.24869 33.6638 3.06034V70.3879H27.5431V3.06034C27.5431 2.24869 27.8655 1.47028 28.4394 0.896354C29.0134 0.322428 29.7918 0 30.6034 0Z" fill="#8F563B"/>
<path d="M15.3017 35.1938C14.8266 36.6191 14.0261 37.9142 12.9638 38.9766C11.9014 40.0389 10.6063 40.8394 9.18103 41.3145C10.6063 41.7897 11.9014 42.5901 12.9638 43.6525C14.0261 44.7148 14.8266 46.0099 15.3017 47.4352C15.7769 46.0099 16.5773 44.7148 17.6397 43.6525C18.702 42.5901 19.9971 41.7897 21.4224 41.3145C19.9971 40.8394 18.702 40.0389 17.6397 38.9766C16.5773 37.9142 15.7769 36.6191 15.3017 35.1938Z" fill="#FBB540"/>
<path d="M82.6293 16.832C82.1541 18.2573 81.3537 19.5524 80.2913 20.6148C79.229 21.6771 77.9339 22.4776 76.5086 22.9527C77.9339 23.4279 79.229 24.2283 80.2913 25.2907C81.3537 26.353 82.1541 27.6481 82.6293 29.0734C83.1044 27.6481 83.9049 26.353 84.9672 25.2907C86.0296 24.2283 87.3247 23.4279 88.75 22.9527C87.3247 22.4776 86.0296 21.6771 84.9672 20.6148C83.9049 19.5524 83.1044 18.2573 82.6293 16.832Z" fill="#FBB540"/>
<path d="M6.12069 53.5562C5.64554 54.9814 4.84509 56.2765 3.78274 57.3389C2.72038 58.4012 1.42529 59.2017 0 59.6768C1.42529 60.152 2.72038 60.9524 3.78274 62.0148C4.84509 63.0772 5.64554 64.3722 6.12069 65.7975C6.59584 64.3722 7.39628 63.0772 8.45864 62.0148C9.521 60.9524 10.8161 60.152 12.2414 59.6768C10.8161 59.2017 9.521 58.4012 8.45864 57.3389C7.39628 56.2765 6.59584 54.9814 6.12069 53.5562Z" fill="#FBB540"/>
<path d="M39.7845 76.5088H45.9052L48.9655 88.7502H42.8448L39.7845 76.5088Z" fill="#EA9D2D"/>
</svg>
