<svg width="76" height="75" viewBox="0 0 76 75" fill="none" xmlns="http://www.w3.org/2000/svg">
<path d="M37.4919 73.7746C57.5189 73.7746 73.754 57.5395 73.754 37.5125C73.754 17.4856 57.5189 1.25049 37.4919 1.25049C17.4649 1.25049 1.22986 17.4856 1.22986 37.5125C1.22986 57.5395 17.4649 73.7746 37.4919 73.7746Z" fill="#394D5C"/>
<path d="M37.492 60.0198C49.9225 60.0198 59.9995 49.9429 59.9995 37.5124C59.9995 25.0818 49.9225 15.0049 37.492 15.0049C25.0614 15.0049 14.9845 25.0818 14.9845 37.5124C14.9845 49.9429 25.0614 60.0198 37.492 60.0198Z" fill="#AABECE"/>
<path d="M37.4919 68.7728V66.272C41.1669 66.2787 44.8087 65.5769 48.218 64.2051L49.1508 66.5258C45.4451 68.0173 41.4865 68.7802 37.4919 68.7728Z" fill="#7D8D9C"/>
<path d="M51.9093 65.2565L50.7539 63.0383C51.5492 62.6244 52.3382 62.163 53.0984 61.6729L54.4564 63.7711C53.6299 64.3075 52.7733 64.8076 51.9093 65.2565Z" fill="#7D8D9C"/>
<path d="M55.9506 24.6544C54.4278 22.4726 52.5319 20.5766 50.35 19.0538L41.2433 28.1618V15.3425C38.7627 14.8923 36.2213 14.8923 33.7408 15.3425V28.1618L24.634 19.0538C22.4522 20.5766 20.5562 22.4726 19.0334 24.6544L28.1414 33.7612H15.3221C14.8719 36.2417 14.8719 38.7831 15.3221 41.2636H28.1414L19.0334 50.3704C20.5562 52.5522 22.4522 54.4482 24.634 55.971L33.7408 46.863V59.6823C36.2213 60.1325 38.7627 60.1325 41.2433 59.6823V46.863L50.35 55.971C52.5319 54.4482 54.4278 52.5522 55.9506 50.3704L46.8426 41.2636H59.6619C60.1121 38.7831 60.1121 36.2417 59.6619 33.7612H46.8426L55.9506 24.6544Z" fill="#F4F4E6"/>
<path d="M36.2416 41.2637H38.7424V45.0149H36.2416V41.2637Z" fill="#AABECE"/>
<path d="M39.9928 13.7547C40.656 13.7547 41.2921 13.4912 41.7611 13.0222C42.2301 12.5532 42.4936 11.9171 42.4936 11.2538C42.4936 10.5906 42.7571 9.95448 43.2261 9.48548C43.6951 9.01648 44.3312 8.753 44.9944 8.753C45.6577 8.753 46.2938 9.01648 46.7628 9.48548C47.2318 9.95448 47.4953 10.5906 47.4953 11.2538V20.0067C47.4953 20.67 47.7587 21.3061 48.2277 21.7751C48.6967 22.2441 49.3328 22.5076 49.9961 22.5076C50.6594 22.5076 51.2955 22.2441 51.7645 21.7751C52.2335 21.3061 52.4969 20.67 52.4969 20.0067V12.5043C52.4969 11.841 52.7604 11.2049 53.2294 10.7359C53.6984 10.2669 54.3345 10.0034 54.9978 10.0034C55.661 10.0034 56.2971 10.2669 56.7661 10.7359C57.2351 11.2049 57.4986 11.841 57.4986 12.5043V26.2588C57.4986 26.9221 57.7621 27.5582 58.2311 28.0272C58.7001 28.4962 59.3362 28.7597 59.9994 28.7597C60.6627 28.7597 61.2988 28.4962 61.7678 28.0272C62.2368 27.5582 62.5003 26.9221 62.5003 26.2588V11.2676C55.7674 4.8292 46.8077 1.24041 37.4919 1.25051V11.2538C37.4919 11.9171 37.7554 12.5532 38.2244 13.0222C38.6934 13.4912 39.3295 13.7547 39.9928 13.7547Z" fill="#87CEE9"/>
<path d="M14.9844 2.50098C15.6167 2.50167 16.2385 2.6626 16.7917 2.96874C17.3449 3.27487 17.8115 3.71622 18.148 4.25156C18.7067 3.92786 19.3403 3.75546 19.9861 3.75139C20.7505 3.74819 21.4976 3.97956 22.1264 4.41429C22.7552 4.84903 23.2356 5.46619 23.5026 6.18251C23.7697 6.89883 23.8105 7.67983 23.6197 8.42011C23.4289 9.16039 23.0156 9.82433 22.4356 10.3223C22.8766 10.5639 23.2345 10.9329 23.4626 11.381C23.6907 11.829 23.7784 12.3355 23.7143 12.8342C23.6503 13.3329 23.4374 13.8007 23.1034 14.1766C22.7694 14.5525 22.3299 14.8189 21.8422 14.9412C21.3545 15.0635 20.8412 15.036 20.3694 14.8622C19.8976 14.6883 19.4891 14.3763 19.1973 13.9669C18.9055 13.5574 18.7439 13.0695 18.7336 12.5668C18.7233 12.0641 18.8648 11.5699 19.1395 11.1489C18.1809 10.9262 17.3485 10.335 16.8225 9.5033C16.2637 9.82701 15.6302 9.9994 14.9844 10.0035C13.9895 10.0035 13.0354 9.60825 12.3319 8.90476C11.6284 8.20126 11.2332 7.24712 11.2332 6.25222C11.2332 5.25733 11.6284 4.30319 12.3319 3.59969C13.0354 2.8962 13.9895 2.50098 14.9844 2.50098Z" fill="#87CEE9"/>
<path d="M70.0027 8.75298C72.0745 8.75298 73.754 7.07349 73.754 5.00174C73.754 2.92998 72.0745 1.25049 70.0027 1.25049C67.931 1.25049 66.2515 2.92998 66.2515 5.00174C66.2515 7.07349 67.931 8.75298 70.0027 8.75298Z" fill="#87CEE9"/>
<path d="M12.4837 26.2588C14.5554 26.2588 16.2349 24.5794 16.2349 22.5076C16.2349 20.4358 14.5554 18.7563 12.4837 18.7563C10.4119 18.7563 8.73242 20.4358 8.73242 22.5076C8.73242 24.5794 10.4119 26.2588 12.4837 26.2588Z" fill="#87CEE9"/>
<path d="M37.492 41.2637C39.5637 41.2637 41.2432 39.5842 41.2432 37.5125C41.2432 35.4407 39.5637 33.7612 37.492 33.7612C35.4202 33.7612 33.7407 35.4407 33.7407 37.5125C33.7407 39.5842 35.4202 41.2637 37.492 41.2637Z" fill="#394D5C"/>
<path d="M36.2416 30.0098H38.7424V33.761H36.2416V30.0098Z" fill="#AABECE"/>
<path d="M41.2432 36.2622H44.9944V38.763H41.2432V36.2622Z" fill="#AABECE"/>
<path d="M29.9895 36.2622H33.7407V38.763H29.9895V36.2622Z" fill="#AABECE"/>
<path d="M37.4919 66.2723V68.7732C41.4868 68.7793 45.4453 68.0151 49.1508 66.5224L48.218 64.2017C44.809 65.5748 41.1671 66.2779 37.4919 66.2723Z" fill="black"/>
<path d="M50.7539 63.0383L51.9093 65.2565C52.7733 64.8076 53.6299 64.3075 54.4564 63.7736L53.0984 61.6729C52.3382 62.1655 51.5492 62.6244 50.7539 63.0383Z" fill="black"/>
<path d="M38.7424 32.6882V30.0098H36.2416V32.6882C35.3822 32.9129 34.5982 33.3623 33.9702 33.9904C33.3421 34.6185 32.8926 35.4025 32.6679 36.2618H29.9895V38.7627H32.6679C32.8926 39.622 33.3421 40.406 33.9702 41.0341C34.5982 41.6622 35.3822 42.1117 36.2416 42.3364V45.0148H38.7424V42.3364C39.6018 42.1117 40.3858 41.6622 41.0138 41.0341C41.6419 40.406 42.0914 39.622 42.3161 38.7627H44.9945V36.2618H42.3161C42.0914 35.4025 41.6419 34.6185 41.0138 33.9904C40.3858 33.3623 39.6018 32.9129 38.7424 32.6882ZM37.492 40.0131C36.9974 40.0131 36.5139 39.8664 36.1026 39.5916C35.6913 39.3168 35.3708 38.9263 35.1815 38.4693C34.9922 38.0123 34.9427 37.5095 35.0392 37.0244C35.1357 36.5393 35.3739 36.0937 35.7236 35.7439C36.0734 35.3942 36.519 35.156 37.0041 35.0595C37.4892 34.963 37.9921 35.0125 38.449 35.2018C38.906 35.3911 39.2966 35.7116 39.5714 36.1229C39.8462 36.5341 39.9928 37.0176 39.9928 37.5123C39.9928 38.1755 39.7294 38.8116 39.2604 39.2806C38.7914 39.7496 38.1553 40.0131 37.492 40.0131Z" fill="black"/>
<path d="M37.492 6.60902e-05C32.3063 -0.00973078 27.1764 1.06976 22.4345 3.16862C21.6905 2.7365 20.8465 2.50632 19.9861 2.5009C19.4902 2.50093 18.9972 2.57726 18.5244 2.72722C18.0478 2.2389 17.4761 1.85355 16.8447 1.59501C16.2132 1.33647 15.5354 1.21024 14.8532 1.22412C14.1711 1.238 13.499 1.39171 12.8785 1.67572C12.2581 1.95974 11.7026 2.36803 11.2463 2.87534C10.79 3.38264 10.4426 3.97818 10.2257 4.6251C10.0087 5.27203 9.9268 5.95659 9.985 6.63643C10.0432 7.31628 10.2403 7.97696 10.564 8.5776C10.8878 9.17824 11.3313 9.70606 11.8672 10.1284C5.49584 16.095 1.40555 24.0974 0.301329 32.7562C-0.802893 41.4151 1.14813 50.1879 5.81813 57.5625C10.4881 64.9372 17.5845 70.4517 25.8841 73.1556C34.1837 75.8594 43.1666 75.5832 51.2845 72.3746C59.4023 69.166 66.1465 63.2259 70.3546 55.5783C74.5627 47.9307 75.9711 39.0546 74.3371 30.48C72.703 21.9053 68.1288 14.1693 61.4029 8.60541C54.6771 3.04148 46.2209 -0.00181538 37.492 6.60902e-05ZM55.728 48.3799L49.8623 42.5142H58.1301C57.6294 44.5793 56.8196 46.5568 55.728 48.3799ZM58.749 37.5125C58.7445 38.3486 58.6911 39.1836 58.589 40.0134H46.8438C46.5964 40.0132 46.3546 40.0864 46.1488 40.2237C45.943 40.361 45.7826 40.5562 45.6878 40.7847C45.593 41.0132 45.5682 41.2647 45.6164 41.5073C45.6646 41.75 45.7836 41.9729 45.9585 42.1478L54.295 50.4831C53.1853 51.918 51.8974 53.2059 50.4625 54.3156L42.1272 45.9791C41.9523 45.8042 41.7294 45.6851 41.4868 45.6369C41.2441 45.5888 40.9926 45.6136 40.7641 45.7084C40.5356 45.8032 40.3404 45.9636 40.2031 46.1694C40.0658 46.3751 39.9926 46.617 39.9928 46.8644V58.6095C38.3324 58.823 36.6515 58.823 34.9911 58.6095V46.8644C34.9913 46.617 34.9181 46.3751 34.7808 46.1694C34.6435 45.9636 34.4483 45.8032 34.2198 45.7084C33.9913 45.6136 33.7398 45.5888 33.4971 45.6369C33.2545 45.6851 33.0316 45.8042 32.8567 45.9791L24.5214 54.3156C23.0865 53.2059 21.7986 51.918 20.6889 50.4831L29.0254 42.1478C29.2003 41.9729 29.3194 41.75 29.3675 41.5073C29.4157 41.2647 29.3909 41.0132 29.2961 40.7847C29.2013 40.5562 29.0409 40.361 28.8351 40.2237C28.6293 40.0864 28.3875 40.0132 28.1401 40.0134H16.3949C16.1815 38.353 16.1815 36.6721 16.3949 35.0117H28.1401C28.3875 35.0119 28.6293 34.9387 28.8351 34.8014C29.0409 34.6641 29.2013 34.4688 29.2961 34.2403C29.3909 34.0118 29.4157 33.7604 29.3675 33.5177C29.3194 33.2751 29.2003 33.0522 29.0254 32.8772L20.6889 24.542C21.7986 23.1071 23.0865 21.8192 24.5214 20.7094L32.8567 29.046C33.0913 29.28 33.4093 29.4114 33.7407 29.4111C33.9051 29.4116 34.0679 29.3793 34.2196 29.3161C34.4481 29.2213 34.6433 29.061 34.7806 28.8554C34.9179 28.6497 34.9912 28.408 34.9911 28.1607V16.4155C36.6515 16.2063 38.3314 16.2021 39.9928 16.403V28.1569C39.9927 28.4042 40.066 28.646 40.2033 28.8516C40.3406 29.0573 40.5359 29.2176 40.7643 29.3123C40.916 29.3756 41.0788 29.4079 41.2432 29.4073C41.5746 29.4076 41.8926 29.2763 42.1272 29.0422L48.0042 23.1653C48.7208 23.6239 49.573 23.8229 50.4185 23.7291C51.2641 23.6354 52.052 23.2545 52.6507 22.6501C53.2372 23.2447 53.7879 23.8735 54.3 24.5332L45.961 32.871C45.7841 33.0455 45.6632 33.2687 45.6137 33.5121C45.5642 33.7556 45.5883 34.0083 45.683 34.238C45.7778 34.4677 45.9388 34.664 46.1455 34.8018C46.3523 34.9396 46.5954 35.0127 46.8438 35.0117H58.589C58.6919 35.8414 58.7454 36.6765 58.749 37.5125ZM48.3593 55.7486C46.5362 56.8402 44.5587 57.65 42.4936 58.1506V49.8829L48.3593 55.7486ZM32.4903 58.1506C30.4252 57.65 28.4477 56.8402 26.6246 55.7486L32.4903 49.8829V58.1506ZM19.2559 26.6402L25.1216 32.5109H16.8601C17.3588 30.4462 18.1665 28.4686 19.2559 26.6452V26.6402ZM16.8601 42.5142H25.1278L19.2621 48.3799C18.1706 46.5568 17.3607 44.5793 16.8601 42.5142ZM26.6308 19.2765C28.4523 18.1877 30.4277 17.38 32.4903 16.8807V25.1484L26.6308 19.2765ZM42.4936 16.8569C43.7828 17.178 45.0388 17.6201 46.2449 18.1774V20.0067C46.25 20.4076 46.3201 20.8049 46.4524 21.1834L42.4936 25.1422V16.8569ZM46.2449 15.4377C44.9495 14.9198 43.6104 14.5189 42.2435 14.2398C42.7083 13.8927 43.0858 13.4422 43.3462 12.9239C43.6067 12.4056 43.7429 11.8338 43.744 11.2538C43.744 10.9222 43.8758 10.6041 44.1103 10.3696C44.3448 10.1351 44.6628 10.0034 44.9944 10.0034C45.3261 10.0034 45.6441 10.1351 45.8786 10.3696C46.1131 10.6041 46.2449 10.9222 46.2449 11.2538V15.4377ZM58.1238 32.5109H49.8623L55.7393 26.6339C56.8237 28.4626 57.6275 30.4436 58.1238 32.5109ZM53.7211 20.2143C53.7211 20.1443 53.7424 20.078 53.7424 20.0067V12.5042C53.7424 12.1726 53.8741 11.8545 54.1086 11.62C54.3431 11.3855 54.6611 11.2538 54.9928 11.2538C55.3244 11.2538 55.6425 11.3855 55.8769 11.62C56.1114 11.8545 56.2432 12.1726 56.2432 12.5042V22.9802C55.4786 21.9931 54.6369 21.0683 53.7261 20.2143H53.7211ZM58.749 26.2588V12.5042C58.749 11.5093 58.3538 10.5552 57.6503 9.85169C56.9468 9.14819 55.9927 8.75298 54.9978 8.75298C54.0029 8.75298 53.0487 9.14819 52.3452 9.85169C51.6418 10.5552 51.2465 11.5093 51.2465 12.5042V20.0067C51.2465 20.3383 51.1148 20.6564 50.8803 20.8909C50.6458 21.1254 50.3277 21.2571 49.9961 21.2571C49.6645 21.2571 49.3464 21.1254 49.1119 20.8909C48.8774 20.6564 48.7457 20.3383 48.7457 20.0067V11.2538C48.7457 10.2589 48.3505 9.30477 47.647 8.60127C46.9435 7.89778 45.9893 7.50256 44.9944 7.50256C43.9996 7.50256 43.0454 7.89778 42.3419 8.60127C41.6384 9.30477 41.2432 10.2589 41.2432 11.2538C41.2432 11.5854 41.1115 11.9035 40.877 12.138C40.6425 12.3725 40.3244 12.5042 39.9928 12.5042C39.6612 12.5042 39.3431 12.3725 39.1086 12.138C38.8741 11.9035 38.7424 11.5854 38.7424 11.2538V2.53216C47.1178 2.82487 55.1077 6.12382 61.2499 11.8252V26.2588C61.2499 26.5904 61.1181 26.9085 60.8836 27.143C60.6491 27.3775 60.3311 27.5092 59.9994 27.5092C59.6678 27.5092 59.3498 27.3775 59.1153 27.143C58.8808 26.9085 58.749 26.5904 58.749 26.2588ZM14.9845 3.75131C15.4059 3.75204 15.8202 3.85968 16.1887 4.06415C16.5572 4.26863 16.8678 4.56325 17.0914 4.92045C17.2631 5.19106 17.5322 5.3854 17.8431 5.46336C18.154 5.54131 18.4829 5.49691 18.762 5.33934C19.1338 5.1224 19.5557 5.00604 19.9861 5.00173C20.6494 5.00173 21.2855 5.26521 21.7545 5.7342C22.2235 6.2032 22.487 6.8393 22.487 7.50256C22.4858 7.85996 22.4069 8.21284 22.2558 8.53671C22.1046 8.86059 21.8848 9.14771 21.6117 9.37818C21.4599 9.5103 21.3423 9.67708 21.2688 9.86436C21.1953 10.0516 21.1681 10.2539 21.1894 10.454C21.2108 10.654 21.2801 10.846 21.3915 11.0135C21.5029 11.1811 21.653 11.3193 21.8292 11.4164C22.0501 11.537 22.2294 11.7215 22.3437 11.9458C22.458 12.17 22.5019 12.4234 22.4699 12.673C22.4378 12.9227 22.3311 13.1568 22.1638 13.3448C21.9966 13.5328 21.7764 13.666 21.5323 13.7269C21.2881 13.7878 21.0312 13.7736 20.7952 13.6862C20.5592 13.5987 20.3551 13.4421 20.2096 13.2368C20.064 13.0315 19.9838 12.7871 19.9794 12.5355C19.975 12.2838 20.0467 12.0368 20.185 11.8265C20.2939 11.6579 20.3607 11.4656 20.3796 11.2659C20.3986 11.0661 20.3692 10.8646 20.2939 10.6786C20.2186 10.4926 20.0996 10.3274 19.947 10.197C19.7944 10.0667 19.6127 9.97494 19.4172 9.92962C18.7785 9.78235 18.2241 9.38804 17.8754 8.833C17.7037 8.56239 17.4346 8.36805 17.1238 8.2901C16.8129 8.21215 16.484 8.25654 16.2049 8.41411C15.8343 8.63087 15.4138 8.74763 14.9845 8.75298C14.3212 8.75298 13.6851 8.4895 13.2161 8.0205C12.7471 7.5515 12.4836 6.91541 12.4836 6.25214C12.4836 5.58888 12.7471 4.95279 13.2161 4.48379C13.6851 4.01479 14.3212 3.75131 14.9845 3.75131ZM37.492 72.5242C30.3715 72.5272 23.4195 70.3581 17.5641 66.3065C11.7086 62.255 7.22838 56.5137 4.72141 49.8491C2.21443 43.1846 1.80003 35.9138 3.53351 29.0076C5.267 22.1014 9.06588 15.8882 14.423 11.1975C14.6089 11.2271 14.7964 11.2459 14.9845 11.2538C15.481 11.2539 15.9745 11.1771 16.4475 11.0262C16.7713 11.3541 17.1396 11.6348 17.5416 11.8603C17.5046 12.0729 17.4858 12.2884 17.4853 12.5042C17.4853 13.4991 17.8805 14.4533 18.584 15.1568C19.2875 15.8602 20.2417 16.2555 21.2366 16.2555C22.2314 16.2555 23.1856 15.8602 23.8891 15.1568C24.5926 14.4533 24.9878 13.4991 24.9878 12.5042C24.9871 11.667 24.7038 10.8546 24.1838 10.1985C24.6821 9.44195 24.9599 8.56159 24.986 7.65607C25.012 6.75055 24.7853 5.85567 24.3313 5.07175C28.1194 3.52584 32.1523 2.66633 36.2415 2.53341V11.2538C36.2443 12.1859 36.5963 13.0831 37.2281 13.7684C32.2111 13.8213 27.3395 15.4603 23.3108 18.4507C19.2821 21.4412 16.3029 25.6297 14.7999 30.4166C13.2969 35.2035 13.3471 40.3432 14.9433 45.0998C16.5395 49.8564 19.5999 53.986 23.6862 56.8972C27.7725 59.8085 32.6752 61.352 37.6923 61.3069C42.7094 61.2618 47.5836 59.6303 51.6169 56.6461C55.6503 53.6619 58.6359 49.478 60.1463 44.6935C61.6568 39.9089 61.6145 34.7691 60.0257 30.01C61.016 30.0031 61.9634 29.6048 62.6613 28.9021C63.3591 28.1993 63.7507 27.2492 63.7507 26.2588V14.3911C68.2074 19.4418 71.1113 25.6717 72.1137 32.3325C73.1161 38.9934 72.1743 45.802 69.4015 51.9406C66.6286 58.0793 62.1426 63.287 56.4823 66.9383C50.8219 70.5895 44.2278 72.5292 37.492 72.5242Z" fill="black"/>
<path d="M70.0028 0C69.0135 0 68.0465 0.293342 67.224 0.842932C66.4015 1.39252 65.7604 2.17367 65.3818 3.08761C65.0033 4.00154 64.9042 5.00721 65.0972 5.97744C65.2902 6.94767 65.7666 7.83888 66.4661 8.53837C67.1656 9.23787 68.0568 9.71423 69.027 9.90722C69.9972 10.1002 71.0029 10.0012 71.9168 9.6226C72.8308 9.24403 73.6119 8.60296 74.1615 7.78044C74.7111 6.95792 75.0044 5.9909 75.0044 5.00166C75.0044 3.67514 74.4775 2.40295 73.5395 1.46495C72.6015 0.526959 71.3293 0 70.0028 0ZM70.0028 7.50249C69.5081 7.50249 69.0246 7.35582 68.6134 7.08103C68.2021 6.80623 67.8816 6.41566 67.6923 5.95869C67.503 5.50172 67.4535 4.99889 67.55 4.51377C67.6465 4.02866 67.8847 3.58306 68.2344 3.23331C68.5842 2.88356 69.0298 2.64538 69.5149 2.54888C70 2.45239 70.5028 2.50191 70.9598 2.6912C71.4168 2.88048 71.8073 3.20102 72.0821 3.61228C72.3569 4.02353 72.5036 4.50704 72.5036 5.00166C72.5036 5.66492 72.2401 6.30102 71.7711 6.77002C71.3021 7.23901 70.666 7.50249 70.0028 7.50249Z" fill="black"/>
<path d="M17.4853 22.5075C17.4853 21.5183 17.1919 20.5513 16.6423 19.7288C16.0927 18.9062 15.3116 18.2652 14.3977 17.8866C13.4837 17.508 12.4781 17.409 11.5078 17.602C10.5376 17.795 9.64638 18.2713 8.94689 18.9708C8.24739 19.6703 7.77103 20.5615 7.57804 21.5317C7.38505 22.502 7.4841 23.5076 7.86266 24.4216C8.24123 25.3355 8.88231 26.1167 9.70482 26.6663C10.5273 27.2158 11.4944 27.5092 12.4836 27.5092C13.8101 27.5092 15.0823 26.9822 16.0203 26.0442C16.9583 25.1062 17.4853 23.834 17.4853 22.5075ZM12.4836 25.0084C11.989 25.0084 11.5055 24.8617 11.0942 24.5869C10.683 24.3121 10.3624 23.9215 10.1731 23.4646C9.98385 23.0076 9.93432 22.5048 10.0308 22.0196C10.1273 21.5345 10.3655 21.0889 10.7152 20.7392C11.065 20.3894 11.5106 20.1512 11.9957 20.0547C12.4808 19.9583 12.9837 20.0078 13.4406 20.1971C13.8976 20.3863 14.2882 20.7069 14.563 21.1181C14.8378 21.5294 14.9844 22.0129 14.9844 22.5075C14.9844 23.1708 14.7209 23.8069 14.252 24.2759C13.783 24.7449 13.1469 25.0084 12.4836 25.0084Z" fill="black"/>
</svg>
