<svg width="77" height="82" viewBox="0 0 77 82" fill="none" xmlns="http://www.w3.org/2000/svg">
<path d="M46.4666 25.2852V35.5351H24.6V25.2852C24.3625 23.9939 23.1729 23.1017 21.8667 23.2352H2.73348C1.9787 23.2352 1.36682 22.6233 1.36682 21.8686V2.73533C1.36682 1.98054 1.9787 1.36867 2.73348 1.36867H21.8667C35.2562 1.19984 46.2582 11.8962 46.4666 25.2852Z" fill="#02A9F4"/>
<path d="M21.8666 1.36867H17.7666C31.1561 1.19984 42.1581 11.8962 42.3665 25.2852V35.5351H46.4664V25.2852C46.2581 11.8962 35.2561 1.19984 21.8666 1.36867Z" fill="#0377BC"/>
<path d="M69.6996 56.0352V77.9017H49.1997C35.8102 78.0706 24.8082 67.3742 24.5999 53.9852V41.002H46.4664V53.9852C46.7039 55.2765 47.8936 56.1687 49.1997 56.0352H69.6996Z" fill="#02A9F4"/>
<path d="M45.0998 56.0352H49.1997C47.8936 56.1687 46.704 55.2765 46.4664 53.9852V41.002H42.3665V53.9852C42.604 55.2765 43.7936 56.1687 45.0998 56.0352Z" fill="#0377BC"/>
<path d="M65.5997 56.0347H69.6997V77.9012H65.5997V56.0347Z" fill="#0377BC"/>
<path d="M75.1663 56.0351V77.9016C75.1663 79.4112 73.9426 80.6349 72.433 80.6349C70.9235 80.6349 69.6997 79.4112 69.6997 77.9016V56.0351C69.7042 54.5274 70.9253 53.3063 72.433 53.3018C73.9379 53.3129 75.1552 54.5302 75.1663 56.0351Z" fill="#9E9E9E"/>
<path d="M49.1998 38.268C49.1952 39.7757 47.9741 40.9968 46.4664 41.0013H24.5999C23.0922 40.9968 21.8711 39.7757 21.8666 38.268C21.8777 36.7631 23.095 35.5458 24.5999 35.5347H46.4664C47.9741 35.5392 49.1952 36.7603 49.1998 38.268Z" fill="#9E9E9E"/>
<path d="M21.8665 0.00189784H2.73332C1.22375 0.00189784 0 1.22565 0 2.73522V21.8684C0 23.378 1.22375 24.6018 2.73332 24.6018H21.8665C22.4166 24.5424 22.9507 24.8094 23.2332 25.2851V34.4198C21.5958 34.9903 20.4986 36.5344 20.4986 38.2683C20.4986 40.0023 21.5958 41.5464 23.2332 42.1169V53.9849C23.4401 68.1293 35.0548 79.4384 49.1997 79.2681H68.5844C69.247 81.1494 71.1699 82.2784 73.1356 81.9405C75.1013 81.6025 76.5367 79.896 76.5329 77.9015V56.0349C76.5367 54.0404 75.1013 52.3339 73.1356 51.9959C71.1699 51.6579 69.247 52.787 68.5844 54.6683H49.1997C48.6497 54.7276 48.1156 54.4606 47.8331 53.9849V42.1169C49.4705 41.5464 50.5677 40.0023 50.5677 38.2683C50.5677 36.5344 49.4705 34.9903 47.8331 34.4198V25.2851C47.6261 11.1407 36.0114 -0.168378 21.8665 0.00189784ZM71.0663 56.0349C71.0663 55.2801 71.6781 54.6683 72.4329 54.6683C73.1877 54.6683 73.7996 55.2801 73.7996 56.0349V77.9015C73.7996 78.6562 73.1877 79.2681 72.4329 79.2681C71.6781 79.2681 71.0663 78.6562 71.0663 77.9015V56.0349ZM21.8665 21.8684H2.73332V2.73522H21.8665C34.5022 2.56404 44.8937 12.6499 45.0997 25.2851V34.1684H25.9665V25.2851C25.7351 23.2322 23.9275 21.7259 21.8665 21.8684ZM49.1997 57.4016H68.3329V76.5348H49.1997C36.564 76.706 26.1725 66.6201 25.9665 53.9849V42.3683H45.0997V53.9849C45.3312 56.0378 47.1387 57.5441 49.1997 57.4016ZM46.4664 39.635H24.5999C23.8451 39.635 23.2332 39.0231 23.2332 38.2683C23.2332 37.5136 23.8451 36.9017 24.5999 36.9017H46.4664C47.2212 36.9017 47.8331 37.5136 47.8331 38.2683C47.8331 39.0231 47.2212 39.635 46.4664 39.635Z" fill="black"/>
</svg>
