<svg width="57" height="90" viewBox="0 0 57 90" fill="none" xmlns="http://www.w3.org/2000/svg">
<path d="M22.1478 84.3574L53.3617 30.6117C54.0685 29.3947 53.0662 27.8974 51.6718 28.0869L30.909 30.9091L35.8699 4.86451C36.0371 3.98648 34.9053 3.4834 34.3656 4.19584L3.67531 44.7068C2.78147 45.8868 3.72787 47.5645 5.20021 47.4095L28.0909 44.9999L20.5867 83.772C20.4056 84.7074 21.6693 85.1811 22.1478 84.3574Z" fill="#FFDC64"/>
<path d="M13.2728 41.8361C12.6996 41.8819 12.3188 41.2553 12.6236 40.7677L35.5697 4.05371C35.2283 3.78371 34.691 3.7663 34.3654 4.19591L3.67531 44.7069C2.78147 45.8869 3.72787 47.5646 5.20021 47.4095L28.0909 44.9999L20.5867 83.7721C20.4856 84.2951 20.8384 84.663 21.2506 84.7512L34.1097 44.0606C34.7124 42.1533 33.1917 40.2426 31.1977 40.4022L13.2728 41.8361Z" fill="#FFC850"/>
<path d="M56.1939 26.8878C55.9139 26.4693 55.418 26.2471 54.9209 26.3148L32.547 29.356L35.4249 14.2469C35.5611 13.5316 35.0918 12.8413 34.3765 12.7051C33.6628 12.5691 32.9711 13.0384 32.8347 13.7535L29.6141 30.6624C29.5346 31.079 29.6607 31.5084 29.9525 31.8162C30.2441 32.124 30.6667 32.2725 31.0866 32.2154L52.6041 29.2906L22.4125 81.2764L27.7487 53.7053C27.887 52.9906 27.4198 52.2989 26.7049 52.1605C25.9902 52.0217 25.2983 52.4894 25.1601 53.2043L18.3421 88.4308C18.22 89.0624 18.5713 89.6899 19.1736 89.9156C19.3253 89.9726 19.4817 89.9998 19.6361 89.9998C20.0945 89.9998 20.5346 89.7597 20.7763 89.3435L56.2382 28.2832C56.4912 27.8478 56.4741 27.3064 56.1939 26.8878Z" fill="black"/>
<path d="M26.251 47.5685C26.1127 48.2832 26.5799 48.9749 27.2948 49.1132C27.3794 49.1296 27.4636 49.1375 27.5467 49.1375C28.1656 49.1375 28.7177 48.6998 28.8396 48.0694L29.3852 45.2506C29.4646 44.8403 29.3449 44.4169 29.0625 44.1089C28.78 43.8011 28.3701 43.6463 27.9529 43.689L4.20686 46.1886L34.1968 6.60166L33.9082 8.11724C33.772 8.8325 34.2413 9.52279 34.9566 9.65902C35.6708 9.7956 36.3621 9.32591 36.4983 8.61066L37.8404 1.56519C37.955 0.963663 37.6404 0.362493 37.081 0.113763C36.521 -0.134967 35.8643 0.0343096 35.4946 0.522453L0.267429 47.0221C-0.0498553 47.4412 -0.0879986 48.0083 0.170048 48.4662C0.42827 48.9239 0.932409 49.1841 1.45624 49.1294L26.4581 46.4976L26.251 47.5685Z" fill="black"/>
</svg>
