<svg width="90" height="94" viewBox="0 0 90 94" fill="none" xmlns="http://www.w3.org/2000/svg">
<path d="M1.40259 88.6518H37.4607L36.9397 86.6457C36.3142 84.2369 34.1401 82.5552 31.6515 82.5552H9.28452C5.57538 82.5552 2.33484 85.0617 1.40259 88.6518Z" fill="#909BA5"/>
<path d="M36.4889 85.4858H3.02981C2.27803 86.3871 1.71234 87.4592 1.40259 88.652H37.4607L36.9397 86.6459C36.8334 86.2359 36.6788 85.8491 36.4889 85.4858Z" fill="#808B95"/>
<path d="M15.0803 82.5553H27.426V78.4787C27.426 77.5072 26.6385 76.7197 25.667 76.7197H16.8393C15.8678 76.7197 15.0803 77.5072 15.0803 78.4787V82.5553Z" fill="#DC4955"/>
<path d="M15.0803 79.3892H27.426V82.5553H15.0803V79.3892Z" fill="#D82F3C"/>
<path d="M49.8433 6.3399C51.1819 3.3435 54.167 1.40723 57.4489 1.40723C62.0419 1.40723 65.7785 5.1438 65.7785 9.73699V28.7852H60.5016V9.73699C60.5016 8.05383 59.1322 6.68413 57.4489 6.68413C56.2463 6.68413 55.1521 7.39369 54.6615 8.49182L24.1856 76.7198H18.4064L49.8433 6.3399Z" fill="#808B95"/>
<path d="M18.4064 76.7199H24.1856L25.5998 73.5537H19.8206L18.4064 76.7199Z" fill="#5E6B75"/>
<path d="M65.8129 36.5452C66.2637 36.5452 66.7008 36.6032 67.1177 36.7118V28.7852H58.9568V37.4866C61.1458 36.8731 63.4467 36.5452 65.8129 36.5452Z" fill="#F6E080"/>
<path d="M60.5016 25.6191H65.7785V28.7853H60.5016V25.6191Z" fill="#5E6B75"/>
<path d="M65.8129 33.3789C63.4466 33.3789 61.1458 33.7066 58.9568 34.3203V37.4864C61.1458 36.8729 63.4467 36.545 65.8129 36.545C66.2637 36.545 66.7008 36.6031 67.1177 36.7116V33.5455C66.701 33.4371 66.2637 33.3789 65.8129 33.3789Z" fill="#ECCD61"/>
<path d="M70.9794 88.652H50.0324C42.2069 88.652 36.3061 81.5426 37.7476 73.851L40.8574 57.2583C43.1082 45.2486 53.5941 36.5454 65.8129 36.5454C68.6662 36.5454 70.9792 38.8584 70.9792 41.7117V88.652H70.9794Z" fill="#DC4955"/>
<path d="M37.6313 74.5923C36.6888 81.9931 42.4591 88.6517 50.0323 88.6517H70.9792V85.4856H50.0323C43.5615 85.4856 38.4068 80.6241 37.6313 74.5923Z" fill="#D82F3C"/>
<path d="M58.9568 55.9621V37.4868C49.8422 40.0417 42.6725 47.5745 40.8574 57.2583L40.441 59.4801H55.4389C57.3818 59.4801 58.9568 57.9051 58.9568 55.9621Z" fill="#F6E080"/>
<path d="M55.4389 56.3138H41.0537C40.9828 56.6264 40.917 56.9411 40.8574 57.2582L40.441 59.48H55.4389C57.3818 59.48 58.9568 57.905 58.9568 55.962V52.7959C58.9568 54.7389 57.3818 56.3138 55.4389 56.3138Z" fill="#ECCD61"/>
<path d="M80.097 84.8665C85.1414 79.8221 85.1414 71.6437 80.097 66.5994C75.0527 61.5551 66.8743 61.5551 61.83 66.5994C56.7856 71.6437 56.7856 79.8221 61.83 84.8665C66.8743 89.9108 75.0527 89.9108 80.097 84.8665Z" fill="#909BA5"/>
<path d="M70.9794 85.4856C64.3809 85.4856 58.9418 80.5374 58.1606 74.1499C58.0971 74.6691 58.0605 75.1967 58.0605 75.733C58.0605 82.8679 63.8446 88.6517 70.9793 88.6517C78.1142 88.6517 83.898 82.8677 83.898 75.733C83.898 75.1967 83.8614 74.6691 83.7979 74.1499C83.0171 80.5374 77.5779 85.4856 70.9794 85.4856Z" fill="#808B95"/>
<path d="M73.5152 79.6023C75.6292 78.1878 76.1963 75.3275 74.7819 73.2135C73.3674 71.0995 70.5071 70.5323 68.3931 71.9468C66.279 73.3612 65.7119 76.2216 67.1264 78.3356C68.5408 80.4496 71.4011 81.0167 73.5152 79.6023Z" fill="#F6E080"/>
<path d="M70.9794 77.173C68.9916 77.173 67.2981 75.914 66.6524 74.1499C66.4717 74.6435 66.373 75.1768 66.373 75.733C66.373 78.277 68.4354 80.3392 70.9792 80.3392C73.5232 80.3392 75.5855 78.277 75.5855 75.733C75.5855 75.1768 75.4868 74.6435 75.3061 74.1499C74.6608 75.914 72.9671 77.173 70.9794 77.173Z" fill="#ECCD61"/>
<path d="M72.3567 61.5909V54.0849C72.3567 53.3549 71.7648 52.763 71.0349 52.763C70.3049 52.763 69.713 53.3549 69.713 54.0849V61.5909C62.4645 62.2604 56.7689 68.373 56.7689 75.7933C56.7689 80.5839 59.145 84.8272 62.7776 87.4155H50.0469C46.7041 87.4155 43.5624 85.9403 41.4278 83.3681C39.2927 80.796 38.4215 77.4364 39.0373 74.1508L41.5338 60.8302H55.464C58.1364 60.8302 60.3106 58.6559 60.3106 55.9835V38.4971C62.0981 38.0746 63.9561 37.8507 65.8586 37.8507C67.9839 37.8507 69.7132 39.5799 69.7132 41.7053V48.7978C69.7132 49.5277 70.3051 50.1196 71.035 50.1196C71.765 50.1196 72.3569 49.5277 72.3569 48.7978V41.7051C72.3569 39.0575 70.7645 36.7763 68.4877 35.7645V28.7533C68.4877 28.0233 67.8958 27.4314 67.1658 27.4314H67.1458V9.66781C67.1456 4.33691 62.8087 0 57.478 0C53.6691 0 50.2043 2.24708 48.6506 5.72508L41.1363 22.548C40.8385 23.2145 41.1375 23.9962 41.804 24.294C42.4707 24.5921 43.2522 24.2927 43.55 23.6263L51.0643 6.80333C52.193 4.2764 54.7106 2.64373 57.4778 2.64373C61.351 2.64373 64.5021 5.79474 64.5021 9.66781V27.4316H61.8583V9.66781C61.8583 7.25239 59.8932 5.28728 57.4778 5.28728C55.7521 5.28728 54.1822 6.30537 53.4781 7.8814L23.2923 75.46H20.397L41.3931 28.4548C41.6909 27.7883 41.3919 27.0066 40.7252 26.7088C40.0584 26.4105 39.2771 26.7101 38.9793 27.3766L17.5018 75.46H16.789C15.0885 75.46 13.7049 76.8436 13.7049 78.5442V81.3068H9.21916C4.90125 81.3068 1.12773 84.2256 0.0424523 88.4049C-0.0604472 88.8009 0.0260938 89.2222 0.276219 89.5458C0.52652 89.8693 0.912613 90.0589 1.32175 90.0589H22.1089C22.8388 90.0589 23.4307 89.4672 23.4307 88.737C23.4307 88.0069 22.8388 87.4152 22.1089 87.4152H3.27068C4.46256 85.3129 6.71386 83.9502 9.21916 83.9502H31.6301C33.5212 83.9502 35.1741 85.2286 35.6494 87.0592L35.7419 87.4152H27.3963C26.6663 87.4152 26.0745 88.0071 26.0745 88.737C26.0745 89.467 26.6663 90.0589 27.3963 90.0589H37.4507C37.8599 90.0589 38.246 89.8695 38.4963 89.5458C38.7466 89.2222 38.8329 88.8009 38.73 88.4048L38.208 86.3948C37.4302 83.3989 34.7252 81.3066 31.63 81.3066H28.718V78.544C28.718 77.025 27.6132 75.762 26.1656 75.5089L55.8917 8.95947C56.1709 8.33451 56.7936 7.93083 57.4778 7.93083C58.4356 7.93083 59.2146 8.71005 59.2146 9.66781V27.4316H58.9886C58.2586 27.4316 57.6667 28.0233 57.6667 28.7535V36.4906C48.5241 39.4341 41.4017 47.1834 39.5546 57.0387L36.4388 73.6639C35.6777 77.7248 36.7547 81.8774 39.3933 85.0566C42.0323 88.2357 45.9152 90.0591 50.0469 90.0591H71.0349C78.9011 90.0591 85.3008 83.6594 85.3008 75.7932C85.3008 68.3728 79.6053 62.2604 72.3567 61.5909ZM16.3482 81.307V78.5443C16.3482 78.3014 16.546 78.1037 16.7889 78.1037H25.6338C25.8767 78.1037 26.0745 78.3014 26.0745 78.5443V81.307H16.3482ZM60.3106 30.0752H65.844V35.2071C63.9531 35.2082 62.1016 35.4087 60.3106 35.7879V30.0752ZM57.6669 39.284V55.9833C57.6669 57.1981 56.6787 58.1863 55.4638 58.1863H42.0292L42.153 57.5256C43.763 48.9369 49.8186 42.1232 57.6669 39.284ZM71.0349 87.4155C64.6262 87.4155 59.4127 82.2018 59.4127 75.7933C59.4127 69.3849 64.6264 64.1711 71.0349 64.1711C77.4433 64.1711 82.6571 69.3849 82.6571 75.7933C82.6571 82.2018 77.4433 87.4155 71.0349 87.4155Z" fill="black"/>
<path d="M71.0348 69.856C67.761 69.856 65.0978 72.5194 65.0978 75.793C65.0978 79.0668 67.7612 81.73 71.0348 81.73C74.3084 81.73 76.9719 79.0666 76.9719 75.793C76.9719 72.5194 74.3084 69.856 71.0348 69.856ZM71.0348 79.0865C69.2189 79.0865 67.7413 77.609 67.7413 75.793C67.7413 73.977 69.2189 72.4995 71.0348 72.4995C72.8508 72.4995 74.3283 73.977 74.3283 75.793C74.3283 77.6091 72.8508 79.0865 71.0348 79.0865Z" fill="black"/>
</svg>
