<svg width="97" height="59" viewBox="0 0 97 59" fill="none" xmlns="http://www.w3.org/2000/svg">
<path d="M90.1824 42.5303H6.81781C3.83894 42.5303 1.42395 40.1155 1.42395 37.1364V6.81768C1.42395 3.83882 3.83875 1.42383 6.81781 1.42383H90.1824C93.1613 1.42383 95.5762 3.83882 95.5762 6.81768V37.1364C95.576 40.1155 93.1613 42.5303 90.1824 42.5303Z" fill="#E0E0E0"/>
<path d="M90.1824 37.4041H6.81781C3.83894 37.4041 1.42395 34.9893 1.42395 32.0103V37.1364C1.42395 40.1153 3.83875 42.5303 6.81781 42.5303H90.1824C93.1613 42.5303 95.5762 40.1155 95.5762 37.1364V32.0103C95.576 34.9893 93.1613 37.4041 90.1824 37.4041Z" fill="#C4C4C4"/>
<path d="M85.3488 31.8286H11.6512V42.5305H85.3488V31.8286Z" fill="#66BAEA"/>
<path d="M85.3488 37.4043H11.6512V42.5305H85.3488V37.4043Z" fill="#3AAAE4"/>
<path d="M90.1824 0H23.0635C22.2771 0 21.6396 0.637352 21.6396 1.42393C21.6396 2.21051 22.2771 2.84786 23.0635 2.84786H90.1824C92.3714 2.84786 94.1523 4.62873 94.1523 6.81779V37.1363C94.1523 39.3254 92.3714 41.1063 90.1824 41.1063H86.7727V31.8285C86.7727 31.0419 86.1352 30.4046 85.3488 30.4046H11.6512C10.8648 30.4046 10.2273 31.0419 10.2273 31.8285V41.1063H6.81779C4.62873 41.1063 2.84786 39.3254 2.84786 37.1363V6.81779C2.84786 4.62873 4.62873 2.84786 6.81779 2.84786H17.3678C18.1542 2.84786 18.7917 2.21051 18.7917 1.42393C18.7917 0.637352 18.1542 0 17.3678 0H6.81779C3.05842 0 0 3.05842 0 6.81779V37.1363C0 40.8957 3.05842 43.9541 6.81779 43.9541H21.6402C22.4266 43.9541 23.0641 43.3168 23.0641 42.5302C23.0641 41.7438 22.4266 41.1063 21.6402 41.1063H13.0751V38.6032H69.6643C70.4507 38.6032 71.0882 37.9658 71.0882 37.1792C71.0882 36.3927 70.4507 35.7553 69.6643 35.7553H13.0751V33.2522H83.9249V35.7553H75.36C74.5736 35.7553 73.9361 36.3927 73.9361 37.1792C73.9361 37.9658 74.5736 38.6032 75.36 38.6032H83.9249V41.1063H27.3357C26.5493 41.1063 25.9118 41.7438 25.9118 42.5302C25.9118 43.3168 26.5493 43.9541 27.3357 43.9541H90.1824C93.9417 43.9541 97.0002 40.8957 97.0002 37.1363V6.81779C97 3.05861 93.9416 0 90.1824 0Z" fill="black"/>
<path d="M85.3488 11.5778C86.1352 11.5778 86.7727 10.9405 86.7727 10.1539C86.7727 9.36733 86.1352 8.72998 85.3488 8.72998H81.1376C80.3512 8.72998 79.7136 9.36733 79.7136 10.1539C79.7136 10.9405 80.3512 11.5778 81.1376 11.5778H85.3488Z" fill="black"/>
<path d="M74.6404 11.5778C75.4268 11.5778 76.0644 10.9405 76.0644 10.1539C76.0644 9.36733 75.4268 8.72998 74.6404 8.72998H47.689C46.9026 8.72998 46.2651 9.36733 46.2651 10.1539C46.2651 10.9405 46.9026 11.5778 47.689 11.5778H74.6404Z" fill="black"/>
<path d="M26.7855 47.7642C25.9991 47.7642 25.3615 48.4015 25.3615 49.1881C25.3615 49.2304 25.3158 53.4517 21.3656 56.2593C20.7246 56.7148 20.5743 57.6039 21.0299 58.2449C21.3077 58.6358 21.7463 58.8441 22.1918 58.8441C22.4772 58.8441 22.7654 58.7584 23.0156 58.5805C28.1505 54.9307 28.2096 49.4207 28.2096 49.1879C28.2094 48.4015 27.5718 47.7642 26.7855 47.7642Z" fill="black"/>
<path d="M36.981 47.7642C36.1946 47.7642 35.5571 48.4015 35.5571 49.1881V57.4199C35.5571 58.2065 36.1946 58.8439 36.981 58.8439C37.7674 58.8439 38.4049 58.2065 38.4049 57.4199V49.1881C38.4049 48.4015 37.7674 47.7642 36.981 47.7642Z" fill="black"/>
<path d="M48.9005 47.7642C48.1141 47.7642 47.4766 48.4015 47.4766 49.1881V57.4199C47.4766 58.2065 48.1141 58.8439 48.9005 58.8439C49.6869 58.8439 50.3244 58.2065 50.3244 57.4199V49.1881C50.3244 48.4015 49.6869 47.7642 48.9005 47.7642Z" fill="black"/>
<path d="M75.6345 56.2593C71.7375 53.4895 71.6407 49.3711 71.6386 49.1816C71.6352 48.3981 70.9989 47.7642 70.2146 47.7642C69.4283 47.7642 68.7907 48.4015 68.7907 49.1881C68.7907 49.4209 68.8498 54.9309 73.9846 58.5807C74.2349 58.7586 74.5231 58.8443 74.8084 58.8443C75.2538 58.8441 75.6926 58.6356 75.9704 58.2451C76.4258 57.6039 76.2755 56.7148 75.6345 56.2593Z" fill="black"/>
<path d="M60.019 47.7642C59.2326 47.7642 58.595 48.4015 58.595 49.1881V57.4199C58.595 58.2065 59.2326 58.8439 60.019 58.8439C60.8054 58.8439 61.4429 58.2065 61.4429 57.4199V49.1881C61.4429 48.4015 60.8054 47.7642 60.019 47.7642Z" fill="black"/>
</svg>
