<svg width="245" height="140" viewBox="0 0 245 140" fill="none" xmlns="http://www.w3.org/2000/svg">
<path opacity="0.4" d="M12.1239 107.407L242.19 305.577C258.335 319.732 282.553 319.732 298.698 305.577C314.843 291.422 314.843 270.19 298.698 256.035L107.586 85.059C104.031 81.8789 104.031 76.3146 107.586 73.1345L298.698 -97.8411C314.843 -111.996 314.843 -133.229 298.698 -147.384C290.625 -154.461 282.553 -158 270.444 -158C258.335 -158 250.263 -154.461 242.19 -147.384L12.1239 50.7867C-4.02111 68.4805 -4.02111 89.713 12.1239 107.407C12.1239 103.868 12.1239 103.868 12.1239 107.407Z" fill="#4B8673"/>
</svg>
