<svg width="30" height="30" viewBox="0 0 30 30" fill="none" xmlns="http://www.w3.org/2000/svg">
<g id="svgexport-5(68) 3" clip-path="url(#clip0_3523_9865)">
<g id="Group">
<g id="Group_2">
<path id="Vector" d="M14.9998 23.4857C19.6864 23.4857 23.4856 19.6865 23.4856 14.9999C23.4856 10.3134 19.6864 6.51416 14.9998 6.51416C10.3133 6.51416 6.51404 10.3134 6.51404 14.9999C6.51404 19.6865 10.3133 23.4857 14.9998 23.4857Z" fill="#FFD347"/>
<path id="Vector_2" d="M15 3.331C14.7496 3.331 14.5467 3.12809 14.5467 2.87766V0.45334C14.5467 0.20291 14.7496 0 15 0C15.2504 0 15.4533 0.20291 15.4533 0.45334V2.87771C15.4533 3.12809 15.2504 3.331 15 3.331Z" fill="#FFD347"/>
<path id="Vector_3" d="M8.93924 4.955C8.78256 4.955 8.63021 4.87373 8.54625 4.7283L7.33412 2.62877C7.20896 2.41197 7.2832 2.13471 7.50006 2.00949C7.71691 1.88446 7.99412 1.95852 8.11933 2.17543L9.33146 4.27496C9.45662 4.49176 9.38238 4.76903 9.16553 4.89424C9.0941 4.93543 9.01617 4.955 8.93924 4.955Z" fill="#FFD347"/>
<path id="Vector_4" d="M4.50134 9.39238C4.42447 9.39238 4.34648 9.37281 4.27511 9.33156L2.17558 8.11943C1.95878 7.99427 1.88449 7.71701 2.00964 7.50015C2.1348 7.2833 2.41206 7.20912 2.62892 7.33421L4.72845 8.54634C4.94525 8.6715 5.01955 8.94877 4.89439 9.16562C4.81037 9.31111 4.65802 9.39238 4.50134 9.39238Z" fill="#FFD347"/>
<path id="Vector_5" d="M2.87766 15.4536H0.45334C0.202969 15.4536 0 15.2506 0 15.0002C0 14.7498 0.202969 14.5469 0.45334 14.5469H2.87771C3.12809 14.5469 3.33105 14.7498 3.33105 15.0002C3.33105 15.2506 3.12803 15.4536 2.87766 15.4536Z" fill="#FFD347"/>
<path id="Vector_6" d="M2.40264 22.7268C2.24596 22.7268 2.09362 22.6455 2.00966 22.5001C1.8845 22.2833 1.95874 22.006 2.17559 21.8808L4.27512 20.6687C4.49192 20.5436 4.76919 20.6177 4.8944 20.8346C5.01956 21.0514 4.94532 21.3287 4.72846 21.4539L2.62893 22.666C2.55751 22.7072 2.47952 22.7268 2.40264 22.7268Z" fill="#FFD347"/>
<path id="Vector_7" d="M7.72627 28.0513C7.6494 28.0513 7.57141 28.0317 7.50004 27.9904C7.28325 27.8653 7.20895 27.588 7.33411 27.3712L8.54623 25.2716C8.67139 25.0548 8.94866 24.9806 9.16551 25.1057C9.38231 25.2309 9.45661 25.5081 9.33145 25.725L8.11932 27.8245C8.0353 27.9699 7.88295 28.0513 7.72627 28.0513Z" fill="#FFD347"/>
<path id="Vector_8" d="M15 30C14.7496 30 14.5467 29.7971 14.5467 29.5467V27.1223C14.5467 26.8719 14.7496 26.6689 15 26.6689C15.2504 26.6689 15.4533 26.8719 15.4533 27.1223V29.5467C15.4533 29.7971 15.2504 30 15 30Z" fill="#FFD347"/>
<path id="Vector_9" d="M22.2737 28.0512C22.117 28.0512 21.9647 27.9699 21.8807 27.8245L20.6686 25.725C20.5434 25.5082 20.6177 25.2309 20.8345 25.1057C21.0513 24.9806 21.3286 25.0547 21.4538 25.2716L22.6659 27.3712C22.7911 27.588 22.7169 27.8652 22.5 27.9904C22.4286 28.0316 22.3506 28.0512 22.2737 28.0512Z" fill="#FFD347"/>
<path id="Vector_10" d="M27.5974 22.7268C27.5205 22.7268 27.4425 22.7073 27.3711 22.666L25.2716 21.4539C25.0548 21.3287 24.9805 21.0515 25.1057 20.8346C25.2308 20.6178 25.5081 20.5436 25.7249 20.6687L27.8245 21.8808C28.0413 22.006 28.1156 22.2832 27.9904 22.5001C27.9064 22.6455 27.754 22.7268 27.5974 22.7268Z" fill="#FFD347"/>
<path id="Vector_11" d="M29.5467 15.4536H27.1223C26.8719 15.4536 26.6689 15.2506 26.6689 15.0002C26.6689 14.7498 26.8719 14.5469 27.1223 14.5469H29.5467C29.797 14.5469 30 14.7498 30 15.0002C30 15.2506 29.797 15.4536 29.5467 15.4536Z" fill="#FFD347"/>
<path id="Vector_12" d="M25.4987 9.39231C25.342 9.39231 25.1896 9.31104 25.1057 9.16561C24.9805 8.94881 25.0547 8.67155 25.2716 8.54633L27.3711 7.3342C27.5879 7.20916 27.8652 7.28323 27.9904 7.50014C28.1156 7.71694 28.0413 7.9942 27.8245 8.11942L25.7249 9.33155C25.6535 9.37274 25.5755 9.39231 25.4987 9.39231Z" fill="#FFD347"/>
<path id="Vector_13" d="M21.0607 4.95507C20.9839 4.95507 20.9059 4.9355 20.8345 4.89425C20.6177 4.7691 20.5434 4.49183 20.6686 4.27498L21.8807 2.17545C22.0059 1.95859 22.2831 1.88441 22.5 2.00951C22.7168 2.13466 22.7911 2.41193 22.6659 2.62878L21.4538 4.72832C21.3698 4.8738 21.2174 4.95507 21.0607 4.95507Z" fill="#FFD347"/>
</g>
<path id="Vector_14" d="M15 6.51465C14.6928 6.51465 14.3896 6.53141 14.0909 6.56316C18.3497 7.01686 21.6672 10.6209 21.6672 15.0001C21.6672 19.3794 18.3497 22.9835 14.0909 23.4372C14.3896 23.469 14.6928 23.4857 15 23.4857C19.6864 23.4857 23.4855 19.6866 23.4855 15.0001C23.4855 10.3137 19.6865 6.51465 15 6.51465Z" fill="#FFBE31"/>
</g>
</g>
<defs>
<clipPath id="clip0_3523_9865">
<rect width="30" height="30" fill="white"/>
</clipPath>
</defs>
</svg>
