<svg width="24" height="24" viewBox="0 0 24 24" fill="none" xmlns="http://www.w3.org/2000/svg">
<g id="Group">
<g id="i">
<g id="Group_2">
<path id="Vector" d="M2.81836 16.0305C2.01641 14.5094 1.5625 12.7766 1.5625 10.9375C1.5625 4.89688 6.45937 0 12.5 0C13.1055 0 13.6992 0.0492188 14.2781 0.14375C11.8246 1.46133 10.1562 4.05156 10.1562 7.03125C10.1562 11.3461 13.6539 14.8438 17.9688 14.8438C20.0234 14.8438 21.8926 14.0508 23.2875 12.7539C22.6902 16.327 20.3609 19.3137 17.1918 20.8207L2.81836 16.0305Z" fill="#F1A141"/>
<path id="Vector_2" d="M10.2191 8.03555C9.7961 4.64141 11.5527 1.60742 14.2781 0.14375C13.6996 0.0492188 13.1055 0 12.5 0C12.334 0 12.1691 0.00351567 12.0051 0.0109375C4.45703 0.347266 0.706642 9.22695 5.35508 15.1828C6.09453 16.1301 6.94844 16.9836 7.89649 17.7227L17.0926 20.7871L17.2801 20.775C20.4035 19.2547 22.6957 16.2926 23.2871 12.7531C21.6867 14.2414 19.4609 15.0664 17.0477 14.7902C13.5168 14.3867 10.6582 11.5613 10.2188 8.03477L10.2191 8.03555Z" fill="#FFBE51"/>
<path id="Vector_3" d="M10.3176 16.0105C10.7273 15.7656 11.2066 15.625 11.7188 15.625C12.8883 15.625 13.8859 16.359 14.277 17.3914C14.5691 17.2605 14.8934 17.1875 15.2344 17.1875C16.5289 17.1875 17.5781 18.2367 17.5781 19.5312C17.5781 20.8258 16.5289 21.875 15.2344 21.875C14.9746 21.875 14.725 21.8328 14.4914 21.7547C13.9703 22.7547 12.9242 23.4375 11.7188 23.4375C10.6 23.4375 9.61875 22.8496 9.06641 21.966C8.61016 22.8406 7.69531 23.4375 6.64062 23.4375C5.62109 23.4375 4.73203 22.8797 4.26172 22.0523C3.90937 22.1898 3.52617 22.2656 3.125 22.2656C1.39922 22.2656 0 20.8664 0 19.1406C0 17.4148 1.39922 16.0156 3.125 16.0156C3.58906 16.0156 4.0293 16.1168 4.42539 16.298C4.80859 15.0055 6.00508 14.0625 7.42188 14.0625C8.73164 14.0625 9.85312 14.868 10.3176 16.0105Z" fill="#83D9F2"/>
<path id="Vector_4" d="M23.4375 2.73438C21.9273 2.73438 20.7031 3.95859 20.7031 5.46875C20.7031 3.95859 19.4789 2.73438 17.9688 2.73438C19.4789 2.73438 20.7031 1.51016 20.7031 0C20.7031 1.51016 21.9273 2.73438 23.4375 2.73438Z" fill="#F1A141"/>
<path id="Vector_5" d="M17.1875 6.25C17.1875 7.32852 16.3129 8.20312 15.2344 8.20312C16.3129 8.20312 17.1875 9.07773 17.1875 10.1562C17.1875 9.07773 18.0621 8.20312 19.1406 8.20312C18.0621 8.20312 17.1875 7.32852 17.1875 6.25Z" fill="#F1A141"/>
<path id="Vector_6" d="M15.2344 17.1875C14.8934 17.1875 14.5691 17.2605 14.277 17.3914C13.8859 16.359 12.8883 15.625 11.7188 15.625C11.2066 15.625 10.7273 15.7656 10.3176 16.0105C9.85273 14.868 8.73125 14.0625 7.42188 14.0625C6.00508 14.0625 4.8082 15.0055 4.42539 16.298C4.02969 16.1168 3.58906 16.0156 3.125 16.0156C1.59961 16.0156 0.33125 17.109 0.0566406 18.5547C0.33125 20.0004 1.59961 21.0938 3.125 21.0938C3.52617 21.0938 3.90937 21.0184 4.26172 20.8805C4.73203 21.7074 5.62109 22.2656 6.64063 22.2656C7.69531 22.2656 8.61055 21.6688 9.06641 20.7941C9.61836 21.6777 10.6 22.2656 11.7188 22.2656C12.9242 22.2656 13.9703 21.5828 14.4914 20.5828C14.725 20.6609 14.9746 20.7031 15.2344 20.7031C16.3262 20.7031 17.2406 19.9555 17.5012 18.9453C17.2406 17.9352 16.3258 17.1875 15.2344 17.1875Z" fill="#A4E9FE"/>
<g id="Group_3">
<path id="Vector_7" d="M17.1875 6.25C17.1875 6.8918 16.8734 7.45664 16.3957 7.8125C16.8738 8.16836 17.1875 8.7332 17.1875 9.375C17.1875 8.7332 17.5016 8.16836 17.9793 7.8125C17.5012 7.45664 17.1875 6.8918 17.1875 6.25Z" fill="#FFBE51"/>
<path id="Vector_8" d="M20.7031 0C20.7031 0.996484 20.1684 1.86602 19.3719 2.34375C20.1684 2.82148 20.7031 3.69102 20.7031 4.6875C20.7031 3.69102 21.2379 2.82148 22.0344 2.34375C21.2379 1.86602 20.7031 0.996484 20.7031 0Z" fill="#FFBE51"/>
</g>
</g>
</g>
</g>
</svg>
